<svg width="36" height="36" viewBox="0 0 36 36" fill="none" xmlns="http://www.w3.org/2000/svg">
<path d="M4.515 16.83V23.565C4.515 30.3 7.215 33 13.95 33H22.035C28.77 33 31.47 30.3 31.47 23.565V16.83" stroke="#225593" stroke-width="1.5" stroke-linecap="round" stroke-linejoin="round"/>
<path d="M18 18C20.745 18 22.77 15.765 22.5 13.02L21.51 3H14.505L13.5 13.02C13.23 15.765 15.255 18 18 18Z" stroke="#225593" stroke-width="1.5" stroke-linecap="round" stroke-linejoin="round"/>
<path d="M27.465 18C30.495 18 32.715 15.54 32.415 12.525L31.995 8.4C31.455 4.5 29.955 3 26.025 3H21.45L22.5 13.515C22.755 15.99 24.99 18 27.465 18Z" stroke="#225593" stroke-width="1.5" stroke-linecap="round" stroke-linejoin="round"/>
<path d="M8.46 18C10.935 18 13.17 15.99 13.41 13.515L13.74 10.2L14.46 3H9.885C5.955 3 4.455 4.5 3.915 8.4L3.51 12.525C3.21 15.54 5.43 18 8.46 18Z" stroke="#225593" stroke-width="1.5" stroke-linecap="round" stroke-linejoin="round"/>
<path d="M18 25.5C15.495 25.5 14.25 26.745 14.25 29.25V33H21.75V29.25C21.75 26.745 20.505 25.5 18 25.5Z" stroke="#225593" stroke-width="1.5" stroke-linecap="round" stroke-linejoin="round"/>
</svg>
